<svg xmlns="http://www.w3.org/2000/svg" viewBox="0 0 47.7 46.44"><defs><style>.ae2af045-aebe-4f39-8c43-ae5077485857,.ee1ec4a1-e551-4126-835c-3fcaa2c80f68{fill:#fff;}.ee1ec4a1-e551-4126-835c-3fcaa2c80f68{fill-rule:evenodd;}</style></defs><title>github-logo</title><g id="af1a8325-d453-4af5-b2dc-e3d9da178c1d" data-name="Layer 2"><g id="bef2e0d6-b8c1-4f68-ad50-e43b8f3a3c34" data-name="Layer 1"><g id="ab39d788-b062-4f69-8289-fe8226cf62d7" data-name="Github-2"><path class="ee1ec4a1-e551-4126-835c-3fcaa2c80f68" d="M23.8,0a23.8,23.8,0,0,0-7.52,46.38c1.19.22,1.62-.52,1.62-1.14V40.81c-6.62,1.43-8-2.81-8-2.81-1.08-2.75-2.64-3.49-2.64-3.49-2.16-1.47.16-1.44.16-1.44a5,5,0,0,1,3.65,2.45c2.12,3.64,5.57,2.59,6.93,2a5,5,0,0,1,1.51-3.18c-5.29-.6-10.85-2.65-10.85-11.77a9.16,9.16,0,0,1,2.46-6.38,8.48,8.48,0,0,1,.23-6.3s2-.64,6.54,2.44a22.53,22.53,0,0,1,11.92,0c4.55-3.08,6.54-2.44,6.54-2.44a8.52,8.52,0,0,1,.23,6.3A9.19,9.19,0,0,1,39,22.57c0,9.15-5.56,11.16-10.86,11.75a5.73,5.73,0,0,1,1.61,4.41v6.53c0,.63.43,1.37,1.64,1.14A23.8,23.8,0,0,0,23.88,0Z"/><path class="ae2af045-aebe-4f39-8c43-ae5077485857" d="M9,34.17c0,.12-.23.15-.4.07s-.27-.24-.22-.36.24-.15.41-.07S9.07,34.05,9,34.17Z"/><path class="ae2af045-aebe-4f39-8c43-ae5077485857" d="M10,35.24c-.11.11-.34.06-.49-.11a.36.36,0,0,1-.07-.49c.12-.11.33-.06.49.11S10.1,35.14,10,35.24Z"/><path class="ae2af045-aebe-4f39-8c43-ae5077485857" d="M10.92,36.62c-.15.1-.39,0-.53-.21s-.15-.47,0-.57.38,0,.53.2A.43.43,0,0,1,10.92,36.62Z"/><path class="ae2af045-aebe-4f39-8c43-ae5077485857" d="M12.2,37.94c-.13.14-.41.1-.61-.09s-.27-.47-.13-.61a.45.45,0,0,1,.61.09C12.27,37.52,12.34,37.8,12.2,37.94Z"/><path class="ae2af045-aebe-4f39-8c43-ae5077485857" d="M14,38.71c-.06.18-.33.27-.6.19s-.44-.3-.39-.49.33-.27.6-.19S14,38.52,14,38.71Z"/><path class="ae2af045-aebe-4f39-8c43-ae5077485857" d="M15.92,38.85c0,.2-.22.36-.5.36s-.52-.15-.52-.34.22-.36.51-.37.51.16.51.35Z"/><path class="ae2af045-aebe-4f39-8c43-ae5077485857" d="M17.74,38.54a.5.5,0,0,1-.45.44c-.28.05-.53-.06-.56-.25s.16-.4.44-.45.53.07.57.26Z"/></g></g></g></svg>