<svg xmlns="http://www.w3.org/2000/svg" viewBox="0 0 47.68 47.68"><defs><style>.fd72c2f5-2032-427e-8c71-5059a339db7b{fill:#fff;}</style></defs><title>inst-logo</title><g id="a6c15264-db5d-4956-97e8-42518f44264e" data-name="Layer 2"><g id="bf26b9ef-1721-4f3a-b8a1-a33067b1cfb2" data-name="Layer 1"><path class="fd72c2f5-2032-427e-8c71-5059a339db7b" d="M23.84,4.29c6.35,0,7.11,0,9.62.14a12.82,12.82,0,0,1,4.42.82,7.89,7.89,0,0,1,4.51,4.51,12.82,12.82,0,0,1,.82,4.42c.12,2.51.14,3.27.14,9.62s0,7.11-.14,9.62a12.82,12.82,0,0,1-.82,4.42,7.89,7.89,0,0,1-4.51,4.51,12.82,12.82,0,0,1-4.42.82c-2.51.12-3.26.14-9.62.14s-7.11,0-9.62-.14a12.82,12.82,0,0,1-4.42-.82,7.89,7.89,0,0,1-4.51-4.51,12.82,12.82,0,0,1-.82-4.42c-.12-2.51-.14-3.27-.14-9.62s0-7.11.14-9.62a12.82,12.82,0,0,1,.82-4.42A7.89,7.89,0,0,1,9.8,5.25a12.82,12.82,0,0,1,4.42-.82c2.51-.12,3.27-.14,9.62-.14m0-4.29C17.38,0,16.57,0,14,.14A17.54,17.54,0,0,0,8.25,1.25a12.14,12.14,0,0,0-7,7A17.54,17.54,0,0,0,.14,14C0,16.57,0,17.38,0,23.84s0,7.27.14,9.81a17.54,17.54,0,0,0,1.11,5.78,12.14,12.14,0,0,0,7,7A17.54,17.54,0,0,0,14,47.54c2.54.11,3.35.14,9.81.14s7.27,0,9.81-.14a17.54,17.54,0,0,0,5.78-1.11,12.14,12.14,0,0,0,7-7,17.54,17.54,0,0,0,1.11-5.78c.11-2.54.14-3.35.14-9.81s0-7.27-.14-9.81a17.54,17.54,0,0,0-1.11-5.78,12.14,12.14,0,0,0-7-7A17.54,17.54,0,0,0,33.65.14C31.11,0,30.3,0,23.84,0Z"/><path class="fd72c2f5-2032-427e-8c71-5059a339db7b" d="M23.84,11.57A12.22,12.22,0,1,0,36.06,23.79h0A12.22,12.22,0,0,0,23.84,11.57Zm0,20.15a7.93,7.93,0,1,1,7.93-7.93h0a7.93,7.93,0,0,1-7.93,7.93Z"/><circle class="fd72c2f5-2032-427e-8c71-5059a339db7b" cx="36.54" cy="11.09" r="2.86"/></g></g></svg>