<svg xmlns="http://www.w3.org/2000/svg" viewBox="0 0 47.63 38.68"><defs><style>.ee9f3c84-36cb-4981-82dd-94f419e4b9e7{fill:#fff;}</style></defs><title>twitter-lg</title><g id="b81aad1d-91c6-4018-9f90-8cd39f638a8a" data-name="Layer 2"><g id="fbddaea5-5d73-4da0-a1fb-fb8ea7b9ba09" data-name="Layer 1"><path id="fddf8356-b9fd-41b9-b953-feab87a2119d" data-name="Twitter-2" class="ee9f3c84-36cb-4981-82dd-94f419e4b9e7" d="M47.63,4.58A19.48,19.48,0,0,1,42,6.12,9.8,9.8,0,0,0,46.32.71a19.53,19.53,0,0,1-6.21,2.37A9.77,9.77,0,0,0,23.22,9.76,10.44,10.44,0,0,0,23.47,12,27.76,27.76,0,0,1,3.33,1.84a9.78,9.78,0,0,0,3,13A9.84,9.84,0,0,1,1.9,13.62v.13a9.76,9.76,0,0,0,7.84,9.57,10,10,0,0,1-4.41.17,9.76,9.76,0,0,0,9.12,6.78A19.58,19.58,0,0,1,2.33,34.43,20.1,20.1,0,0,1,0,34.29a27.51,27.51,0,0,0,15,4.39c18,0,27.79-14.88,27.79-27.78V9.63A19.7,19.7,0,0,0,47.63,4.58Z"/></g></g></svg>